<?xml version="1.0" standalone="no"?>
<!DOCTYPE svg PUBLIC "-//W3C//DTD SVG 20010904//EN"
 "http://www.w3.org/TR/2001/REC-SVG-20010904/DTD/svg10.dtd">
<svg version="1.0" xmlns="http://www.w3.org/2000/svg"
 width="730.000000pt" height="730.000000pt" viewBox="0 0 730.000000 730.000000"
 preserveAspectRatio="xMidYMid meet">
<metadata>
Created by potrace 1.14, written by Peter Selinger 2001-2017
</metadata>
<g transform="translate(0.000000,730.000000) scale(0.100000,-0.100000)"
fill="#000000" stroke="none">
<path d="M590 4064 l0 -306 43 -69 c23 -39 49 -81 57 -94 8 -12 30 -48 48 -79
l33 -56 670 0 669 0 0 455 0 455 -155 0 -155 0 0 -300 0 -300 -450 0 -450 0 0
300 0 300 -155 0 -155 0 0 -306z"/>
<path d="M2771 4322 c-17 -27 -31 -54 -31 -60 0 -7 -4 -12 -10 -12 -5 0 -10
-5 -10 -10 0 -6 -5 -16 -10 -23 -21 -24 -79 -117 -85 -137 -6 -20 -5 -20 606
-20 l612 0 18 22 c11 11 19 25 19 30 0 4 9 17 20 28 12 12 18 25 15 30 -4 6 1
13 9 16 9 3 16 10 16 16 0 5 14 29 30 53 17 24 30 46 30 50 0 3 9 15 20 27 10
12 17 25 14 30 -3 4 -281 8 -619 8 l-613 0 -31 -48z"/>
<path d="M4264 4327 c-41 -61 -77 -122 -73 -122 2 0 -6 -11 -18 -25 -13 -13
-23 -30 -23 -37 0 -7 -4 -13 -9 -13 -5 0 -14 -13 -21 -30 -7 -16 -16 -30 -21
-30 -5 0 -9 -9 -9 -19 0 -11 -3 -21 -7 -23 -10 -4 -53 -65 -53 -74 0 -3 -13
-26 -30 -51 -16 -24 -30 -48 -30 -54 0 -5 -4 -9 -10 -9 -5 0 -10 -7 -10 -15 0
-8 -4 -15 -9 -15 -5 0 -12 -11 -15 -25 -4 -14 -11 -25 -16 -25 -6 0 -10 -5
-10 -10 0 -6 -21 -43 -47 -83 -27 -39 -55 -83 -63 -97 -8 -14 -30 -52 -48 -83
-19 -31 -38 -57 -43 -57 -5 0 -9 -9 -9 -20 0 -11 -5 -20 -10 -20 -6 0 -20 -21
-33 -47 -12 -27 -25 -50 -28 -53 -3 -3 -12 -17 -20 -31 -8 -14 -25 -42 -37
-62 l-24 -37 -424 0 c-294 0 -424 3 -424 11 0 6 15 31 33 57 42 62 55 83 63
105 3 9 10 17 15 17 5 0 9 5 9 11 0 7 12 31 27 55 l28 44 289 2 289 3 33 45
c18 25 33 50 33 57 1 7 7 16 14 20 7 4 21 24 31 43 9 19 30 56 46 83 l29 47
-605 0 -604 0 -10 -25 c-5 -14 -14 -25 -19 -25 -5 0 -11 -8 -15 -17 -3 -10
-15 -31 -26 -48 -11 -16 -24 -39 -30 -50 -6 -11 -19 -33 -30 -50 -11 -16 -26
-42 -35 -57 l-16 -28 136 0 c74 0 135 -4 135 -9 0 -5 -7 -14 -15 -21 -8 -7
-15 -17 -15 -23 0 -6 -8 -20 -19 -31 -10 -12 -31 -43 -46 -71 -15 -27 -36 -62
-46 -77 -11 -14 -19 -31 -19 -37 0 -6 -4 -11 -9 -11 -5 0 -14 -13 -20 -30 -5
-16 -15 -30 -20 -30 -6 0 -11 -4 -11 -10 0 -8 -30 -58 -57 -96 -13 -16 -35
-57 -51 -89 -8 -16 -22 -38 -30 -47 -14 -17 23 -18 766 -18 l781 0 60 90 c34
49 61 92 61 94 0 3 14 25 30 49 17 25 30 50 30 56 0 6 4 11 9 11 5 0 14 14 20
30 5 17 15 30 20 30 6 0 11 5 11 12 0 6 46 83 103 171 113 177 149 236 173
285 9 17 20 32 25 32 5 0 9 9 9 19 0 10 7 21 15 25 8 3 15 13 15 23 0 12 3 14
11 6 14 -14 36 -52 45 -75 3 -10 10 -18 14 -18 4 0 20 -25 35 -55 16 -30 32
-55 36 -55 4 0 10 -11 13 -25 4 -14 11 -25 16 -25 6 0 10 -6 10 -13 0 -8 9
-22 20 -32 11 -10 17 -22 14 -26 -3 -5 -42 -9 -87 -9 l-82 0 -64 -105 c-35
-58 -68 -105 -73 -105 -5 0 -7 -4 -3 -10 3 -5 -3 -18 -15 -30 -11 -11 -20 -27
-20 -35 0 -13 37 -15 269 -15 l269 0 16 -25 c9 -14 13 -25 9 -25 -5 0 0 -5 10
-11 9 -5 17 -14 17 -20 0 -5 26 -48 58 -97 32 -48 62 -95 65 -104 6 -16 23
-18 167 -18 l160 0 -2 748 -3 747 -150 0 -150 0 -5 -465 c-5 -446 -6 -463 -22
-437 -10 14 -18 31 -18 37 0 5 -4 10 -9 10 -5 0 -11 8 -14 18 -7 22 -39 75
-50 83 -11 8 -34 47 -43 72 -3 9 -10 17 -15 17 -5 0 -9 7 -9 15 0 8 -5 15 -11
15 -5 0 -8 4 -5 9 3 5 -1 14 -9 21 -8 7 -15 17 -15 22 0 5 -9 18 -20 30 -10
12 -17 24 -15 28 3 4 -4 15 -15 25 -11 10 -20 24 -20 32 0 7 -6 16 -14 19 -8
3 -12 12 -9 20 3 8 1 14 -4 14 -4 0 -17 16 -27 35 -11 19 -23 35 -28 35 -4 0
-8 6 -8 13 0 8 -9 22 -20 32 -11 10 -17 22 -14 26 3 5 -4 19 -15 31 -12 12
-21 27 -21 34 0 6 -7 15 -16 18 -9 4 -14 9 -10 13 3 4 -2 16 -12 27 -11 12
-30 41 -43 66 -13 25 -33 55 -44 67 l-20 22 -21 -32z"/>
<path d="M6080 4060 l0 -300 -410 0 c-225 0 -410 -3 -410 -6 0 -8 43 -87 51
-94 5 -5 58 -92 95 -158 l20 -37 327 -3 327 -2 0 -300 0 -300 150 0 150 0 0
750 0 750 -150 0 -150 0 0 -300z"/>
<path d="M594 3147 c-2 -7 -3 -76 -2 -152 l3 -140 671 -3 672 -2 15 33 c9 18
28 50 43 72 41 61 114 186 114 196 0 5 -304 9 -755 9 -610 0 -757 -2 -761 -13z"/>
</g>
</svg>
